<?xml version="1.0" encoding="UTF-8"?>
<svg id="_레이어_2" data-name="레이어 2" xmlns="http://www.w3.org/2000/svg" viewBox="0 0 56.5 54.58">
  <defs>
    <style>
      .cls-1 {
        fill: #2b2b2b;
        stroke-width: 0px;
      }
    </style>
  </defs>
  <g id="_레이어_1-2" data-name="레이어 1">
    <g>
      <path class="cls-1" d="m54.75,46.08h-1.25V11.83c0-.97-.78-1.75-1.75-1.75h-8c-.97,0-1.75.78-1.75,1.75v34.25h-1.5v-24.25c0-.97-.78-1.75-1.75-1.75h-8c-.97,0-1.75.78-1.75,1.75v24.25h-1.5v-19.25c0-.97-.78-1.75-1.75-1.75h-8c-.97,0-1.75.78-1.75,1.75v19.25h-1.5v-9.25c0-.97-.78-1.75-1.75-1.75H4.75c-.97,0-1.75.78-1.75,1.75v9.25h-1.25c-.97,0-1.75.78-1.75,1.75v5c0,.97.78,1.75,1.75,1.75h53c.97,0,1.75-.78,1.75-1.75v-5c0-.97-.78-1.75-1.75-1.75Zm-9.25-32.5h4.5v32.5h-4.5V13.58Zm-13,10h4.5v22.5h-4.5v-22.5Zm-13,5h4.5v17.5h-4.5v-17.5Zm-13,10h4.5v7.5h-4.5v-7.5Zm46.5,12.5H3.5v-1.5h49.5v1.5Z"/>
      <path class="cls-1" d="m9.78,22.28c.3.2.64.3.97.3.56,0,1.12-.27,1.46-.78l6.82-10.18,8.52,5.7c.39.26.86.35,1.31.26.46-.09.86-.36,1.11-.74l7.13-10.65.57,2.89c.17.83.9,1.41,1.71,1.41.11,0,.23-.01.34-.03.95-.19,1.56-1.11,1.38-2.06l-1.38-6.99c-.1-.48-.38-.87-.76-1.12,0,0,0,0-.01-.01-.48-.32-1.06-.37-1.56-.19l-6.71,1.33c-.95.19-1.56,1.11-1.38,2.06.19.95,1.11,1.56,2.06,1.38l2.79-.55-6.11,9.13-8.52-5.7c-.39-.26-.86-.35-1.31-.26-.46.09-.86.36-1.11.74l-7.79,11.63c-.54.8-.32,1.89.48,2.43Z"/>
    </g>
  </g>
</svg>