<svg width="1398" height="928" viewBox="0 0 1398 928" fill="none" xmlns="http://www.w3.org/2000/svg">
<g opacity="0.259672">
<rect x="488.533" y="178.21" width="16" height="20" transform="rotate(-9.63411 488.533 178.21)" fill="#FA007D"/>
</g>
<path d="M485.727 329.451V302.716L543.837 211.153H567.593V247.446H553.811L519.803 301.331V302.439H603.956V329.451H485.727ZM554.226 353V321.278L554.919 309.573V211.153H586.987V353H554.226ZM680.593 356.463C668.218 356.463 657.552 353.531 648.594 347.667C639.637 341.757 632.734 333.284 627.885 322.248C623.037 311.166 620.636 297.845 620.682 282.284C620.728 266.724 623.152 253.518 627.955 242.667C632.803 231.77 639.683 223.482 648.594 217.802C657.552 212.077 668.218 209.214 680.593 209.214C692.968 209.214 703.634 212.077 712.592 217.802C721.595 223.482 728.522 231.77 733.37 242.667C738.218 253.564 740.619 266.77 740.573 282.284C740.573 297.891 738.149 311.236 733.301 322.317C728.452 333.399 721.549 341.872 712.592 347.736C703.68 353.554 693.014 356.463 680.593 356.463ZM680.593 328.412C687.981 328.412 693.96 324.649 698.532 317.123C703.103 309.55 705.365 297.937 705.319 282.284C705.319 272.034 704.28 263.584 702.202 256.935C700.125 250.24 697.239 245.253 693.545 241.975C689.851 238.696 685.534 237.057 680.593 237.057C673.251 237.057 667.318 240.774 662.793 248.208C658.268 255.596 655.982 266.955 655.936 282.284C655.89 292.674 656.883 301.285 658.914 308.119C660.992 314.953 663.901 320.055 667.641 323.426C671.381 326.75 675.698 328.412 680.593 328.412ZM758.477 329.451V302.716L816.587 211.153H840.344V247.446H826.561L792.553 301.331V302.439H876.706V329.451H758.477ZM826.976 353V321.278L827.669 309.573V211.153H859.737V353H826.976Z" fill="url(#paint0_linear_1_2)"/>
<g opacity="0.5">
<rect x="137" y="135" width="16" height="20" fill="#FA007D" fill-opacity="0.5"/>
</g>
<g opacity="0.624343">
<rect x="1384.31" y="216.841" width="16" height="20" transform="rotate(-172.902 1384.31 216.841)" fill="#FA007D" fill-opacity="0.5"/>
</g>
<g opacity="0.386498">
<rect x="764.706" y="543.881" width="16" height="20" transform="rotate(33.9704 764.706 543.881)" fill="#FA007D" fill-opacity="0.5"/>
</g>
<g opacity="0.0829094">
<rect x="1278.7" y="411.814" width="16" height="20" transform="rotate(115.097 1278.7 411.814)" fill="#FA007D" fill-opacity="0.5"/>
</g>
<g opacity="0.146862">
<rect x="352.983" y="126.544" width="16" height="20" transform="rotate(166.816 352.983 126.544)" fill="#FA007D" fill-opacity="0.5"/>
</g>
<g opacity="0.427321">
<rect x="250.664" y="835.052" width="16" height="20" transform="rotate(-144.508 250.664 835.052)" fill="#FA007D" fill-opacity="0.5"/>
</g>
<g opacity="0.982472">
<rect x="345.951" y="271.562" width="16" height="20" transform="rotate(-12.677 345.951 271.562)" fill="#FA007D" fill-opacity="0.5"/>
</g>
<g opacity="0.495993">
<rect x="1100.41" y="134.948" width="16" height="20" transform="rotate(-141.465 1100.41 134.948)" fill="#FA007D" fill-opacity="0.5"/>
</g>
<g opacity="0.872245">
<rect x="618.703" y="592.814" width="16" height="20" transform="rotate(115.097 618.703 592.814)" fill="#FA007D" fill-opacity="0.5"/>
</g>
<g opacity="0.12796">
<rect x="123.28" y="906.849" width="16" height="20" transform="rotate(78.0837 123.28 906.849)" fill="#FA007D" fill-opacity="0.5"/>
</g>
<g opacity="0.200788">
<rect x="12.485" y="484.357" width="16" height="20" transform="rotate(-73.0157 12.485 484.357)" fill="#FA007D" fill-opacity="0.5"/>
</g>
<g opacity="0.44799">
<rect x="1041.63" y="299.64" width="16" height="20" transform="rotate(-18.2539 1041.63 299.64)" fill="#FA007D" fill-opacity="0.5"/>
</g>
<g opacity="0.0226822">
<rect x="50.3353" y="105.917" width="16" height="20" transform="rotate(-15.7199 50.3353 105.917)" fill="#FA007D" fill-opacity="0.5"/>
</g>
<g opacity="0.734701">
<rect x="391.311" y="54.4884" width="16" height="20" transform="rotate(-8.11439 391.311 54.4884)" fill="#FA007D" fill-opacity="0.5"/>
</g>
<g opacity="0.054983">
<rect x="1014.21" y="551.951" width="16" height="20" transform="rotate(-65.9156 1014.21 551.951)" fill="#FA007D" fill-opacity="0.5"/>
</g>
<g opacity="0.896157">
<rect x="173.343" y="395.309" width="16" height="20" transform="rotate(108.506 173.343 395.309)" fill="#FA007D" fill-opacity="0.5"/>
</g>
<g opacity="0.610049">
<rect x="647.702" y="119.501" width="16" height="20" transform="rotate(-59.3244 647.702 119.501)" fill="#FA007D" fill-opacity="0.5"/>
</g>
<g opacity="0.230903">
<rect x="614.329" y="646.62" width="16" height="20" transform="rotate(120.168 614.329 646.62)" fill="#FA007D" fill-opacity="0.5"/>
</g>
<g opacity="0.6">
<rect x="428.857" y="570.828" width="16" height="20" transform="rotate(-33.4649 428.857 570.828)" fill="#FA007D" fill-opacity="0.5"/>
</g>
<g opacity="0.0548727">
<rect x="633.023" y="803.852" width="16" height="20" transform="rotate(-67.9442 633.023 803.852)" fill="#FA007D" fill-opacity="0.5"/>
</g>
<g opacity="0.903197">
<rect x="1123.44" y="698.708" width="16" height="20" transform="rotate(-126.254 1123.44 698.708)" fill="#FA007D" fill-opacity="0.5"/>
</g>
<g opacity="0.582871">
<rect x="914.417" y="40.0957" width="16" height="20" transform="rotate(-145.522 914.417 40.0957)" fill="#FA007D" fill-opacity="0.5"/>
</g>
<g opacity="0.218113">
<rect x="1352.78" y="884.194" width="16" height="20" transform="rotate(-31.9452 1352.78 884.194)" fill="#FA007D" fill-opacity="0.5"/>
</g>
<g opacity="0.211644">
<rect x="624.139" y="352.605" width="16" height="20" transform="rotate(60.8441 624.139 352.605)" fill="#FA007D" fill-opacity="0.5"/>
</g>
<g opacity="0.075987">
<rect x="1287.78" y="371.879" width="16" height="20" transform="rotate(-131.831 1287.78 371.879)" fill="#FA007D" fill-opacity="0.5"/>
</g>
<defs>
<linearGradient id="paint0_linear_1_2" x1="885" y1="253.719" x2="458.783" y2="282.376" gradientUnits="userSpaceOnUse">
<stop stop-color="#FF007F"/>
<stop offset="1" stop-color="#B6035C"/>
</linearGradient>
</defs>
</svg>
