<svg xmlns="http://www.w3.org/2000/svg" xmlns:xlink="http://www.w3.org/1999/xlink" width="26" height="24.641" viewBox="0 0 26 24.641">
  <defs>
    <clipPath id="clip-path">
      <rect id="사각형_1697" data-name="사각형 1697" width="26" height="24.641" fill="none"/>
    </clipPath>
  </defs>
  <g id="그룹_254" data-name="그룹 254" transform="translate(0 0)">
    <g id="그룹_253" data-name="그룹 253" transform="translate(0 0)" clip-path="url(#clip-path)">
      <path id="패스_484" data-name="패스 484" d="M16.622,24.641a.772.772,0,0,1-.43-.13l-7.955-5.3H5.008A5.014,5.014,0,0,1,0,14.2V5.008A5.014,5.014,0,0,1,5.008,0H20.991A5.014,5.014,0,0,1,26,5.008V14.2a5.014,5.014,0,0,1-5.008,5.008H16.632l.755,4.529a.776.776,0,0,1-.765.9M5.008,1.552A3.46,3.46,0,0,0,1.552,5.008V14.2a3.46,3.46,0,0,0,3.457,3.457H8.472a.773.773,0,0,1,.43.13l6.66,4.44L14.95,18.56a.776.776,0,0,1,.765-.9h5.276A3.46,3.46,0,0,0,24.448,14.2V5.008a3.46,3.46,0,0,0-3.457-3.457Z" transform="translate(0 0)" fill="#2b2b2b"/>
      <path id="패스_485" data-name="패스 485" d="M12.727,19.675a2.134,2.134,0,1,1,2.134-2.134,2.136,2.136,0,0,1-2.134,2.134m0-2.717a.583.583,0,1,0,.582.583.583.583,0,0,0-.582-.583" transform="translate(-5.613 -8.163)" fill="#2b2b2b"/>
      <path id="패스_486" data-name="패스 486" d="M25.245,19.675a2.134,2.134,0,1,1,2.134-2.134,2.136,2.136,0,0,1-2.134,2.134m0-2.717a.583.583,0,1,0,.582.583.583.583,0,0,0-.582-.583" transform="translate(-12.245 -8.163)" fill="#2b2b2b"/>
      <path id="패스_487" data-name="패스 487" d="M37.764,19.675A2.134,2.134,0,1,1,39.9,17.541a2.136,2.136,0,0,1-2.134,2.134m0-2.717a.583.583,0,1,0,.582.583.583.583,0,0,0-.582-.583" transform="translate(-18.878 -8.163)" fill="#2b2b2b"/>
    </g>
  </g>
</svg>
