<svg xmlns="http://www.w3.org/2000/svg" xmlns:xlink="http://www.w3.org/1999/xlink" width="26" height="24.641" viewBox="0 0 26 24.641">
  <defs>
    <clipPath id="clip-path">
      <rect id="사각형_1712" data-name="사각형 1712" width="26" height="24.641" fill="none"/>
    </clipPath>
  </defs>
  <g id="그룹_282" data-name="그룹 282" transform="translate(0 0)">
    <g id="그룹_281" data-name="그룹 281" transform="translate(0 0)" clip-path="url(#clip-path)">
      <path id="패스_541" data-name="패스 541" d="M20.991,0H5.008A5.014,5.014,0,0,0,0,5.008V14.2a5.014,5.014,0,0,0,5.008,5.008H8.237l7.955,5.3a.776.776,0,0,0,1.2-.773l-.755-4.53h4.359A5.014,5.014,0,0,0,26,14.2V5.008A5.014,5.014,0,0,0,20.991,0M7.123,11.007A1.646,1.646,0,1,1,8.768,9.361a1.646,1.646,0,0,1-1.646,1.646m5.877,0a1.646,1.646,0,1,1,1.646-1.646A1.646,1.646,0,0,1,13,11.007m5.877,0a1.646,1.646,0,1,1,1.646-1.646,1.646,1.646,0,0,1-1.646,1.646" fill="#f74e7b"/>
    </g>
  </g>
</svg>
