<svg xmlns="http://www.w3.org/2000/svg" xmlns:xlink="http://www.w3.org/1999/xlink" width="26" height="26" viewBox="0 0 26 26">
  <defs>
    <clipPath id="clip-path">
      <rect id="사각형_1688" data-name="사각형 1688" width="26" height="26" fill="none"/>
    </clipPath>
  </defs>
  <g id="그룹_246" data-name="그룹 246" transform="translate(0 0)">
    <g id="그룹_245" data-name="그룹 245" transform="translate(0 0)" clip-path="url(#clip-path)">
      <path id="패스_474" data-name="패스 474" d="M13.667,0a3.282,3.282,0,0,1,1.31.882q5.05,5.073,10.107,10.139a3.839,3.839,0,0,1,.5.572,2.425,2.425,0,0,1,.17,2.423,2.256,2.256,0,0,1-1.99,1.362c-.553.051-.52-.06-.52.545q0,3.444,0,6.889a3.744,3.744,0,0,1-.227,1.445A2.8,2.8,0,0,1,20.466,26c-1.377.005-2.754,0-4.131,0a.781.781,0,0,1-.857-.872c0-1.957-.016-3.915.007-5.871a1.311,1.311,0,0,0-1.4-1.409c-.75.032-1.5,0-2.255.008a1.228,1.228,0,0,0-1.294,1.314q0,2.936,0,5.872c0,.681-.277.96-.949.96-1.335,0-2.67,0-4,0A2.8,2.8,0,0,1,2.8,23.357c-.021-.3-.026-.592-.026-.889q0-3.368,0-6.736c0-.232-.059-.334-.309-.34a2.4,2.4,0,0,1-1.811-.777,2.427,2.427,0,0,1,.065-3.379c.064-.069.131-.133.2-.2Q5.968,5.97,11.02.9A3.326,3.326,0,0,1,12.349,0ZM21.66,18.907q0-2.071,0-4.143c0-.674.279-.95.959-.951.329,0,.659.012.988,0a.8.8,0,0,0,.753-.512.814.814,0,0,0-.167-.918c-.167-.18-.344-.35-.517-.524L13.7,1.846A.842.842,0,0,0,12.367,1.8Q7.114,7.063,1.866,12.33a.821.821,0,0,0-.222.95.835.835,0,0,0,.819.532c.312.009.625,0,.938,0,.675,0,.953.28.954.957q0,4.13,0,8.26a1.286,1.286,0,0,0,1.4,1.407c.963,0,1.926-.006,2.889.006.234,0,.305-.07.3-.3-.008-1.525,0-3.05,0-4.575,0-.254.009-.507.032-.761a2.823,2.823,0,0,1,2.686-2.542c.895-.02,1.791-.025,2.686,0a2.7,2.7,0,0,1,1.98.944,2.979,2.979,0,0,1,.733,2.081c0,1.609,0,3.219,0,4.829,0,.236.058.327.311.324.963-.014,1.925,0,2.889-.006a1.287,1.287,0,0,0,1.4-1.413q0-2.058,0-4.117" transform="translate(0 -0.001)" fill="#2b2b2b"/>
    </g>
  </g>
</svg>
