<?xml version="1.0" encoding="UTF-8"?>
<svg id="_레이어_2" data-name="레이어 2" xmlns="http://www.w3.org/2000/svg" viewBox="0 0 53.98 53.83">
  <defs>
    <style>
      .cls-1 {
        fill: #F74E7B;
        stroke-width: 0px;
      }
    </style>
  </defs>
  <g id="_레이어_1-2" data-name="레이어 1">
    <path class="cls-1" d="m53.12,24c-.29-.44-.67-.81-1.04-1.18-7-7-13.99-13.99-20.98-20.99-.79-.79-1.64-1.48-2.72-1.83h-2.74c-1.1.35-1.96,1.06-2.76,1.86C15.89,8.86,8.89,15.86,1.9,22.85c-.14.14-.28.27-.41.41-1.93,2.07-2,4.95-.14,7,1,1.1,2.3,1.58,3.76,1.61.52.01.64.22.64.7-.01,4.65,0,9.3,0,13.95,0,.61.01,1.23.06,1.84.21,3.1,2.69,5.46,5.79,5.47,2.77.01,5.54,0,8.31,0,1.4,0,1.97-.58,1.97-1.99,0-4.05,0-8.1,0-12.16,0-1.64,1.06-2.71,2.69-2.72,1.56-.01,3.12.05,4.68-.02,1.85-.08,2.92,1.32,2.9,2.92-.05,4.05-.02,8.1-.01,12.16,0,1.17.63,1.8,1.78,1.81,2.86,0,5.72,0,8.58,0,2.31,0,4.41-1.46,5.29-3.6.4-.96.47-1.97.47-2.99,0-4.75,0-9.51,0-14.26,0-1.25-.07-1.02,1.08-1.13,1.91-.18,3.37-1.09,4.13-2.82.74-1.67.71-3.41-.35-5.02Z"/>
  </g>
</svg>