<?xml version="1.0" encoding="UTF-8"?>
<svg id="_레이어_2" data-name="레이어 2" xmlns="http://www.w3.org/2000/svg" viewBox="0 0 54.23 53.3">
  <defs>
    <style>
      .cls-1 {
        fill: #2b2b2b;
        stroke-width: 0px;
      }
    </style>
  </defs>
  <g id="_레이어_1-2" data-name="레이어 1">
    <g>
      <path class="cls-1" d="m27.11,30.15c-8.31,0-15.08-6.76-15.08-15.08S18.8,0,27.11,0s15.08,6.76,15.08,15.08-6.76,15.08-15.08,15.08Zm0-26.85c-6.49,0-11.78,5.28-11.78,11.78s5.28,11.78,11.78,11.78,11.78-5.28,11.78-11.78-5.28-11.78-11.78-11.78Z"/>
      <path class="cls-1" d="m52.26,53.3H1.97c-1.08,0-1.97-.88-1.97-1.97,0-10.95,8.91-19.85,19.85-19.85h14.52c10.95,0,19.85,8.91,19.85,19.85,0,1.08-.88,1.97-1.97,1.97Zm-48.91-3.3h47.52c-.68-8.51-7.82-15.22-16.5-15.22h-14.52c-8.68,0-15.82,6.71-16.5,15.22Z"/>
    </g>
  </g>
</svg>