<svg xmlns="http://www.w3.org/2000/svg" xmlns:xlink="http://www.w3.org/1999/xlink" width="26" height="18.881" viewBox="0 0 26 18.881">
  <defs>
    <clipPath id="clip-path">
      <rect id="사각형_1710" data-name="사각형 1710" width="26" height="18.881" fill="none"/>
    </clipPath>
  </defs>
  <g id="그룹_278" data-name="그룹 278" transform="translate(0 0)">
    <g id="그룹_277" data-name="그룹 277" transform="translate(0 0)" clip-path="url(#clip-path)">
      <path id="패스_531" data-name="패스 531" d="M4.245,18.881a.956.956,0,0,1-.71-.315A13.8,13.8,0,0,1,0,9.146,13.836,13.836,0,0,1,3.536.314.958.958,0,1,1,4.954,1.6,11.885,11.885,0,0,0,1.919,9.188,11.85,11.85,0,0,0,4.955,17.28a.958.958,0,0,1-.709,1.6" transform="translate(0 0)" fill="#2b2b2b"/>
      <path id="패스_532" data-name="패스 532" d="M11.151,18.314a.957.957,0,0,1-.67-.274A8.454,8.454,0,0,1,8,12.051a8.336,8.336,0,0,1,2.478-5.777.958.958,0,1,1,1.341,1.368,6.5,6.5,0,0,0-1.9,4.434,6.487,6.487,0,0,0,1.9,4.6.958.958,0,0,1-.67,1.642" transform="translate(-3.623 -2.716)" fill="#2b2b2b"/>
      <path id="패스_533" data-name="패스 533" d="M38.958,18.881a.958.958,0,0,1-.709-1.6,11.85,11.85,0,0,0,3.036-8.093A11.89,11.89,0,0,0,38.249,1.6.958.958,0,1,1,39.668.314,13.841,13.841,0,0,1,43.2,9.146a13.8,13.8,0,0,1-3.532,9.42.956.956,0,0,1-.71.315" transform="translate(-17.204 0)" fill="#2b2b2b"/>
      <path id="패스_534" data-name="패스 534" d="M32.959,18.314a.958.958,0,0,1-.67-1.642,6.484,6.484,0,0,0,1.9-4.6,6.511,6.511,0,0,0-1.9-4.435A.958.958,0,0,1,33.63,6.274a8.341,8.341,0,0,1,2.476,5.777,8.452,8.452,0,0,1-2.477,5.99.957.957,0,0,1-.67.274" transform="translate(-14.487 -2.716)" fill="#2b2b2b"/>
      <path id="패스_535" data-name="패스 535" d="M20.247,17.983a4.241,4.241,0,1,1,4.241-4.241,4.247,4.247,0,0,1-4.241,4.241m0-6.567a2.326,2.326,0,1,0,2.326,2.326,2.329,2.329,0,0,0-2.326-2.326" transform="translate(-7.246 -4.301)" fill="#2b2b2b"/>
    </g>
  </g>
</svg>
