<svg xmlns="http://www.w3.org/2000/svg" xmlns:xlink="http://www.w3.org/1999/xlink" width="26" height="18.881" viewBox="0 0 26 18.881">
  <defs>
    <clipPath id="clip-path">
      <rect id="사각형_1711" data-name="사각형 1711" width="26" height="18.881" fill="none"/>
    </clipPath>
  </defs>
  <g id="그룹_280" data-name="그룹 280" transform="translate(0 0)">
    <g id="그룹_279" data-name="그룹 279" transform="translate(0 0)" clip-path="url(#clip-path)">
      <path id="패스_536" data-name="패스 536" d="M1.919,9.188A11.885,11.885,0,0,1,4.954,1.6.958.958,0,0,0,3.536.315,13.836,13.836,0,0,0,0,9.147a13.8,13.8,0,0,0,3.532,9.42.958.958,0,0,0,1.42-1.287A11.849,11.849,0,0,1,1.919,9.188" transform="translate(0 0)" fill="#f74e7b"/>
      <path id="패스_537" data-name="패스 537" d="M11.836,6.288a.958.958,0,0,0-1.355-.014A8.334,8.334,0,0,0,8,12.052a8.454,8.454,0,0,0,2.478,5.99.958.958,0,0,0,1.341-1.368,6.489,6.489,0,0,1-1.9-4.6,6.5,6.5,0,0,1,1.9-4.434.958.958,0,0,0,.014-1.355" transform="translate(-3.623 -2.717)" fill="#f74e7b"/>
      <path id="패스_538" data-name="패스 538" d="M39.668.315A.958.958,0,1,0,38.249,1.6a11.888,11.888,0,0,1,3.035,7.586,11.848,11.848,0,0,1-3.036,8.093.958.958,0,1,0,1.42,1.287A13.8,13.8,0,0,0,43.2,9.147,13.841,13.841,0,0,0,39.668.315" transform="translate(-17.204 0)" fill="#f74e7b"/>
      <path id="패스_539" data-name="패스 539" d="M33.63,6.274a.958.958,0,1,0-1.341,1.367,6.509,6.509,0,0,1,1.9,4.435,6.484,6.484,0,0,1-1.9,4.6.958.958,0,1,0,1.34,1.368,8.449,8.449,0,0,0,2.477-5.99A8.341,8.341,0,0,0,33.63,6.274" transform="translate(-14.487 -2.716)" fill="#f74e7b"/>
      <path id="패스_540" data-name="패스 540" d="M20.247,9.5a4.241,4.241,0,1,0,4.241,4.241A4.247,4.247,0,0,0,20.247,9.5" transform="translate(-7.246 -4.301)" fill="#f74e7b"/>
    </g>
  </g>
</svg>
