<svg xmlns="http://www.w3.org/2000/svg" xmlns:xlink="http://www.w3.org/1999/xlink" width="48.863" height="23.062" viewBox="0 0 48.863 23.062">
  <defs>
    <clipPath id="clip-path">
      <rect id="사각형_1750" data-name="사각형 1750" width="48.863" height="23.062" fill="none"/>
    </clipPath>
  </defs>
  <g id="그룹_326" data-name="그룹 326" transform="translate(0 0)">
    <g id="그룹_324" data-name="그룹 324" transform="translate(0 0)" clip-path="url(#clip-path)">
      <path id="패스_563" data-name="패스 563" d="M20.616,12.18a8.507,8.507,0,1,0-8.536,8.5,8.452,8.452,0,0,0,8.536-8.5m-5.18.888c-1.362,1.014-2.735,2.014-4.1,3.027a1.057,1.057,0,0,1-1.187.219,1.038,1.038,0,0,1-.481-1.062c.007-1.032,0-2.064,0-3.1,0-1.016,0-2.032,0-3.047a1.051,1.051,0,0,1,.491-1.06.994.994,0,0,1,1.14.207c1.377,1.02,2.762,2.03,4.137,3.053.788.587.787,1.169,0,1.758" transform="translate(-0.63 -0.647)" fill="#fff"/>
      <path id="패스_564" data-name="패스 564" d="M32.845,9.893a.669.669,0,0,0-.64-.7.712.712,0,0,0-.739.662,2.836,2.836,0,0,0-.016.427q0,1.428,0,2.857c0,.984,0,1.968,0,2.952,0,.773.194.962.947.976.238,0,.474.032.711.04a5.418,5.418,0,0,0,1.47-.041.616.616,0,0,0,.539-.721.645.645,0,0,0-.671-.612c-.349-.011-.7-.024-1.047,0-.412.026-.559-.136-.555-.551.017-1.428.007-2.857.007-4.285,0-.333,0-.667-.007-1" transform="translate(-5.498 -1.606)" fill="#fff"/>
      <path id="패스_565" data-name="패스 565" d="M42.687,16.535a.838.838,0,0,0,1.576.025c.042-.1.083-.206.117-.312q.973-2.916,1.942-5.832c.054-.165.088-.336.113-.432,0-.507-.267-.756-.694-.747s-.6.294-.719.647q-.676,2.035-1.357,4.069c-.039.115-.039.3-.177.31-.178.012-.176-.189-.219-.314-.428-1.23-.85-2.462-1.278-3.693a4.109,4.109,0,0,0-.285-.706.631.631,0,0,0-.77-.323.621.621,0,0,0-.481.72,1.8,1.8,0,0,0,.1.416q.766,2.23,1.54,4.459c.2.571.389,1.144.595,1.711" transform="translate(-7.072 -1.608)" fill="#fff"/>
      <path id="패스_566" data-name="패스 566" d="M38.01,17.107a.75.75,0,0,0,.72-.842q.014-3.118,0-6.237a.751.751,0,0,0-.719-.842c-.42.008-.673.319-.676.865-.007,1.016,0,2.032,0,3.047,0,1.047,0,2.1,0,3.142,0,.547.255.857.675.866" transform="translate(-6.527 -1.606)" fill="#fff"/>
      <path id="패스_567" data-name="패스 567" d="M50.977,10.593q.691,0,1.381,0c.6-.007.843-.2.852-.654.009-.471-.25-.682-.871-.688q-1.142-.01-2.285,0c-.708,0-.924.225-.928.952,0,.984,0,1.968,0,2.952h0c0,1.031-.008,2.063,0,3.094.006.534.242.8.724.813q1.333.025,2.665,0c.474-.01.694-.248.691-.669s-.222-.644-.7-.658c-.492-.016-.984-.014-1.476-.006-.354.006-.533-.13-.511-.506a6.449,6.449,0,0,0,0-.857c-.027-.386.124-.55.519-.536a13.267,13.267,0,0,0,1.38-.016.658.658,0,0,0,.011-1.307c-.189-.022-.38-.014-.571-.017-1.568-.032-1.308.26-1.336-1.426,0-.323.134-.467.451-.465" transform="translate(-8.588 -1.616)" fill="#fff"/>
      <path id="패스_568" data-name="패스 568" d="M48.8,10.516a9,9,0,0,0-9.118-8.054q-10.249,0-20.5.012a1.565,1.565,0,0,1-.973-.286A10.883,10.883,0,0,0,10.4.08,11.35,11.35,0,0,0,.768,7.313,15.033,15.033,0,0,0,0,10.206v2.669a2.278,2.278,0,0,1,.077.273,11.528,11.528,0,0,0,18.061,7.8,1.679,1.679,0,0,1,1.051-.342q9.463.017,18.925.011a22.889,22.889,0,0,0,2.9-.078A9.037,9.037,0,0,0,48.8,10.516M27.9,14.123c.348-.022.7-.008,1.047,0a.644.644,0,0,1,.671.612.616.616,0,0,1-.54.721,5.4,5.4,0,0,1-1.469.041c-.238-.009-.474-.036-.712-.041-.753-.014-.944-.2-.947-.975,0-.984,0-1.968,0-2.952q0-1.428,0-2.856a3.083,3.083,0,0,1,.016-.428.712.712,0,0,1,.739-.661.67.67,0,0,1,.64.7c.012.333.007.666.007,1,0,1.428.012,2.857-.007,4.285,0,.414.143.577.555.551m2.9-2.631c0-1.016,0-2.032,0-3.047,0-.546.256-.857.676-.866a.752.752,0,0,1,.719.842q.014,3.119,0,6.237a.75.75,0,0,1-.719.842c-.421-.01-.672-.32-.675-.866-.007-1.048,0-2.1,0-3.142m2.578-3.151a.622.622,0,0,1,.481-.721.632.632,0,0,1,.77.323,4.083,4.083,0,0,1,.285.706c.428,1.23.85,2.462,1.278,3.693.043.124.04.325.219.314.139-.009.139-.2.177-.31q.683-2.034,1.357-4.069c.117-.354.29-.639.72-.647s.688.24.693.747c-.025.095-.059.267-.113.431q-.968,2.917-1.942,5.833c-.035.106-.075.209-.117.312a.838.838,0,0,1-1.576-.025c-.206-.568-.4-1.14-.595-1.711q-.771-2.229-1.54-4.459a1.822,1.822,0,0,1-.1-.416m9.89,2.527c.19,0,.382,0,.57.017a.593.593,0,0,1,.576.636.588.588,0,0,1-.587.671,13.737,13.737,0,0,1-1.38.016c-.4-.015-.546.15-.519.536a6.449,6.449,0,0,1,0,.857c-.023.375.156.512.511.506.492-.008.984-.01,1.475.006.476.015.7.234.7.658s-.217.66-.691.67q-1.333.027-2.666,0c-.483-.009-.718-.279-.724-.813-.012-1.031,0-2.063,0-3.094h0c0-.984,0-1.968,0-2.952,0-.727.22-.948.928-.953q1.144-.007,2.286,0c.62.006.88.217.871.688-.009.455-.255.646-.852.654q-.689.007-1.381,0c-.316,0-.456.142-.451.465.028,1.687-.231,1.395,1.337,1.427m-40.3.7a8.507,8.507,0,1,1,8.478,8.465,8.474,8.474,0,0,1-8.478-8.465" transform="translate(0 0)" fill="#f74e7b"/>
      <path id="패스_569" data-name="패스 569" d="M16.725,12.209c-1.375-1.023-2.759-2.033-4.137-3.053a.994.994,0,0,0-1.14-.207,1.054,1.054,0,0,0-.491,1.06c.007,1.016,0,2.032,0,3.047,0,1.031,0,2.063,0,3.1a1.037,1.037,0,0,0,.48,1.062,1.057,1.057,0,0,0,1.187-.219c1.362-1.012,2.735-2.013,4.1-3.027.791-.588.792-1.171,0-1.758" transform="translate(-1.915 -1.545)" fill="#f74e7b"/>
    </g>
  </g>
</svg>
