<svg xmlns="http://www.w3.org/2000/svg" xmlns:xlink="http://www.w3.org/1999/xlink" width="244.397" height="33.418" viewBox="0 0 244.397 33.418">
  <defs>
    <clipPath id="clip-path">
      <rect id="사각형_1798" data-name="사각형 1798" width="244.397" height="33.418" transform="translate(0 0)" fill="none"/>
    </clipPath>
  </defs>
  <g id="로고" transform="translate(0 0)">
    <path id="패스_665" data-name="패스 665" d="M22.177,0V33.418h4.311V15.762h5.206V11.9H26.488V0Z" fill="#232323"/>
    <g id="그룹_402" data-name="그룹 402">
      <g id="그룹_401" data-name="그룹 401" clip-path="url(#clip-path)">
        <path id="패스_666" data-name="패스 666" d="M33,28.289V24.571H45.082c4.795,0,8.773-.036,12.044-.744v3.644a59.8,59.8,0,0,1-12.044.818ZM44.525,1.3a11,11,0,0,1,7.063,2.267,7.382,7.382,0,0,1,2.6,5.614V12.6a7.265,7.265,0,0,1-2.6,5.614,10.593,10.593,0,0,1-7.063,2.267,10.521,10.521,0,0,1-7.063-2.267,7.147,7.147,0,0,1-2.6-5.614V9.182a7.259,7.259,0,0,1,2.6-5.614A10.921,10.921,0,0,1,44.525,1.3M39.171,12.23c0,3.085,1.933,4.758,5.354,4.758,3.381,0,5.352-1.673,5.352-4.758V9.553c0-3.011-1.971-4.759-5.352-4.759-3.421,0-5.354,1.748-5.354,4.759ZM58.613,0h4.311V33.418H58.613Z" fill="#232323"/>
        <path id="패스_667" data-name="패스 667" d="M91.483,1.114H95.8V17.323H77.432V1.114h4.312V5.8h9.739ZM81.744,13.9h9.74V9.144h-9.74Zm18.513,5.65V0h4.313V6.839H109.4V10.7H104.57v8.847Z" fill="#232323"/>
        <path id="패스_668" data-name="패스 668" d="M128.924,15.538V10.78h-4.461v4.758H110.3v3.495h32.75V15.538Z" fill="#232323"/>
        <path id="패스_669" data-name="패스 669" d="M169.44,33.418V0h4.311V12.266h5.205v3.867h-5.205V33.418Z" fill="#232323"/>
        <path id="패스_670" data-name="패스 670" d="M179.856,26.727h32.75v3.718h-32.75ZM209.075,9.851V13.27H187.366V18.1h22.266V21.6H183.053V1.822h26.208V5.277h-21.9V9.851Z" fill="#232323"/>
        <path id="패스_671" data-name="패스 671" d="M226.479,23.791a63.246,63.246,0,0,0,11.376-.818v3.568a63.064,63.064,0,0,1-11.376.818h-9.665V2.006h4.313V23.791Zm3.978-9.182V10.891h9.627V0H244.4V33.418h-4.313V14.609Z" fill="#232323"/>
        <path id="패스_672" data-name="패스 672" d="M151.858,9.277A4.281,4.281,0,1,1,156.138,5a4.286,4.286,0,0,1-4.28,4.281m0-5.162a.882.882,0,1,0,.881.881.882.882,0,0,0-.881-.881" fill="#f74e7b"/>
        <path id="패스_673" data-name="패스 673" d="M161.5,9.277A4.281,4.281,0,1,1,165.778,5a4.286,4.286,0,0,1-4.28,4.281m0-5.162a.882.882,0,1,0,.881.881.882.882,0,0,0-.881-.881" fill="#f74e7b"/>
        <path id="패스_674" data-name="패스 674" d="M168.017,27.3H145.338V18.656a6.516,6.516,0,0,1,11.339-4.386,6.517,6.517,0,0,1,11.34,4.386Zm-19.28-3.4h15.881V18.656a3.12,3.12,0,1,0-6.241,0h-3.4a3.12,3.12,0,1,0-6.241,0Z" fill="#f74e7b"/>
        <path id="패스_675" data-name="패스 675" d="M20.69,26.617a18.94,18.94,0,0,1-3.864-.4C7.083,24.172.012,14.677.012,3.642c0-.6-.032-1.048.01-1.635H4.069c-.035.492-.015,1.133-.015,1.635,0,9.134,5.721,16.965,13.6,18.619a14.783,14.783,0,0,0,3.034.315Z" fill="#f74e7b"/>
        <path id="패스_676" data-name="패스 676" d="M117.673,2.918V8.176l-.03,5.66h3.836l.024-4.422.079-5.14,5.568,1.977,5.779,1.977,3.579-2.069-9.4-3.214-5.86-2Z" fill="#f74e7b"/>
        <path id="패스_677" data-name="패스 677" d="M133.386,21.338h-46.4a7.924,7.924,0,0,0-5.428,1.709,5.556,5.556,0,0,0,0,8.551,7.924,7.924,0,0,0,5.428,1.709h46.4a8.016,8.016,0,0,0,5.576-1.709,5.848,5.848,0,0,0,0-8.551,8.016,8.016,0,0,0-5.576-1.709m-.818,8.624H87.8c-2.826,0-3.941-1-3.941-2.64s1.115-2.639,3.941-2.639h44.764c2.788,0,3.94,1,3.94,2.639s-1.152,2.64-3.94,2.64" fill="#f74e7b"/>
      </g>
    </g>
  </g>
</svg>
