<svg xmlns="http://www.w3.org/2000/svg" xmlns:xlink="http://www.w3.org/1999/xlink" width="26" height="18.123" viewBox="0 0 26 18.123">
  <defs>
    <clipPath id="clip-path">
      <rect id="사각형_1715" data-name="사각형 1715" width="26" height="18.123" fill="none"/>
    </clipPath>
  </defs>
  <g id="그룹_288" data-name="그룹 288" transform="translate(0 0)">
    <g id="그룹_287" data-name="그룹 287" transform="translate(0 0)" clip-path="url(#clip-path)">
      <path id="패스_546" data-name="패스 546" d="M13.024,14.3H25.586c.4,0,.405,0,.405.412q0,3.98,0,7.959a2.87,2.87,0,0,1-2.179,2.888,3.056,3.056,0,0,1-.757.09q-10.055,0-20.11,0A2.851,2.851,0,0,1,.011,22.75c-.018-2.715,0-5.43-.011-8.144,0-.306.157-.312.382-.312q6.32,0,12.641,0M20.6,22.761H22.21a.828.828,0,0,0,.9-.855c.017-.536.017-1.074,0-1.611a.812.812,0,0,0-.877-.846q-1.634-.006-3.269,0a.811.811,0,0,0-.874.847q-.026.805,0,1.611a.828.828,0,0,0,.9.852c.536,0,1.072,0,1.608,0M5.382,17.682c.625,0,1.25,0,1.874,0,.4,0,.616-.188.619-.525s-.214-.546-.605-.548q-1.874-.011-3.748,0c-.392,0-.609.215-.606.548s.219.523.619.525c.616,0,1.232,0,1.848,0" transform="translate(0 -7.523)" fill="#f74e7b"/>
      <path id="패스_547" data-name="패스 547" d="M12.989,4.307H.452c-.441,0-.446,0-.44-.432A13.178,13.178,0,0,1,.046,2.529,2.845,2.845,0,0,1,2.846.006C4.3-.005,5.749,0,7.2,0q7.931,0,15.862,0a2.838,2.838,0,0,1,2.859,2.269,8.862,8.862,0,0,1,.072,1.845c0,.134-.081.186-.2.187l-.29,0H12.989" transform="translate(-0.006 0)" fill="#f74e7b"/>
    </g>
  </g>
</svg>
