<svg xmlns="http://www.w3.org/2000/svg" xmlns:xlink="http://www.w3.org/1999/xlink" width="26" height="22.775" viewBox="0 0 26 22.775">
  <defs>
    <clipPath id="clip-path">
      <rect id="사각형_1752" data-name="사각형 1752" width="26" height="22.775" fill="none"/>
    </clipPath>
  </defs>
  <g id="랭킹" transform="translate(0 0)">
    <g id="그룹_329" data-name="그룹 329" transform="translate(0 0)" clip-path="url(#clip-path)">
      <path id="패스_570" data-name="패스 570" d="M0,19.809a.7.7,0,0,1,.744-.321c.247.032.313-.071.313-.313q-.01-6.468,0-12.938c0-.666.177-.845.839-.846H8.259c.362,0,.363,0,.363-.367V.89c0-.093,0-.186,0-.279A.589.589,0,0,1,9.306,0h6.925c.169,0,.338,0,.507,0a.555.555,0,0,1,.606.521,2.323,2.323,0,0,1,.016.354q0,3.7,0,7.408c0,.355,0,.355.348.356h6.317c.085,0,.17,0,.254,0a.6.6,0,0,1,.65.676c0,1.37,0,2.74,0,4.11,0,1.911,0,3.822-.006,5.733,0,.252.062.338.325.331.595-.017.75.152.75.745s0,1.2,0,1.8c0,.558-.171.731-.722.731H11.756q-5.53,0-11.06,0a.757.757,0,0,1-.7-.327Zm16.221-9.49q0-4.426.005-8.853c0-.255-.069-.333-.327-.331q-2.9.015-5.809,0c-.249,0-.334.061-.334.325q.011,8.853,0,17.706c0,.258.071.328.328.327,1.936-.01,3.873-.006,5.809-.006.328,0,.329,0,.329-.339V10.319M2.2,12.994c0,2.055,0,4.11-.005,6.165,0,.248.056.335.322.334q2.892-.016,5.784,0c.257,0,.331-.071.33-.329q-.011-6.152,0-12.3c0-.25-.061-.335-.325-.334q-2.892.016-5.784,0c-.259,0-.329.073-.328.329C2.2,8.9,2.2,10.948,2.2,12.994M17.36,14.622c0,1.522,0,3.044,0,4.567,0,.232.069.3.3.3q2.917-.013,5.835,0c.243,0,.3-.083.3-.308q-.009-4.553,0-9.107c0-.231-.064-.3-.3-.3q-2.9.013-5.809,0c-.263,0-.328.083-.326.333.01,1.505.005,3.01.005,4.515m-4.4,7.009q5.58,0,11.16,0c.873,0,.719.175.734-.778,0-.017,0-.034,0-.051a.154.154,0,0,0-.173-.171l-.3,0q-11.313,0-22.625,0c-.733,0-.625-.1-.633.627,0,.375,0,.376.378.376H12.965" transform="translate(0 0)" fill="#2b2b2b"/>
      <path id="패스_571" data-name="패스 571" d="M25.066,7.689l-.133.1a.579.579,0,0,1-.8-.051.567.567,0,0,1,.035-.781c.338-.343.65-.711,1.015-1.026a.616.616,0,0,1,.692-.165.593.593,0,0,1,.332.628c.011.845.007,1.69.008,2.534,0,.27.01.541,0,.811-.012.217.055.314.284.3a1.158,1.158,0,0,1,.375.039.556.556,0,0,1-.125,1.093q-1.1.011-2.2,0a.528.528,0,0,1-.536-.475.552.552,0,0,1,.428-.626,1.874,1.874,0,0,1,.453-.035c.091,0,.178-.022.178-.134,0-.722,0-1.444,0-2.205" transform="translate(-12.652 -3.013)" fill="#2b2b2b"/>
      <path id="패스_572" data-name="패스 572" d="M9.6,17.176c.347,0,.693,0,1.04,0a.561.561,0,0,1,.605.6q.011,1.04,0,2.079a.561.561,0,0,1-.606.6c-.439.005-.879.008-1.318,0-.182,0-.268.048-.253.243a3.84,3.84,0,0,1,0,.532c-.014.2.054.272.258.266.405-.012.811-.005,1.217,0,.431,0,.7.217.7.564s-.262.575-.688.577q-.964,0-1.927,0a.608.608,0,0,1-.694-.681q-.013-.976,0-1.952a.613.613,0,0,1,.677-.68q.62-.013,1.242,0c.182,0,.251-.057.256-.248.016-.759.022-.759-.73-.759-.287,0-.575.006-.862-.009a.572.572,0,0,1-.531-.37.561.561,0,0,1,.55-.761c.355,0,.71,0,1.065,0" transform="translate(-4.179 -9.056)" fill="#2b2b2b"/>
      <path id="패스_573" data-name="패스 573" d="M43.333,26.791c0,.651,0,1.3,0,1.952,0,.561-.208.764-.766.765-.634,0-1.268,0-1.9,0a.582.582,0,0,1-.627-.445.565.565,0,0,1,.576-.692c.439-.013.879-.011,1.318,0,.2,0,.265-.055.266-.26,0-.778.011-.778-.757-.778-.262,0-.524,0-.786,0a.568.568,0,1,1-.03-1.132c.414-.017.829-.019,1.242,0,.254.011.338-.066.332-.327-.015-.683,0-.682-.681-.683-.321,0-.643.009-.962-.016a.561.561,0,0,1-.27-1.036.635.635,0,0,1,.389-.087c.659,0,1.318,0,1.978,0,.46,0,.673.211.678.689.008.685,0,1.369,0,2.054" transform="translate(-21.101 -12.679)" fill="#2b2b2b"/>
    </g>
  </g>
</svg>
