<svg xmlns="http://www.w3.org/2000/svg" xmlns:xlink="http://www.w3.org/1999/xlink" width="26" height="22.619" viewBox="0 0 26 22.619">
  <defs>
    <clipPath id="clip-path">
      <rect id="사각형_1753" data-name="사각형 1753" width="26" height="22.619" fill="none"/>
    </clipPath>
  </defs>
  <g id="그룹_331" data-name="그룹 331" transform="translate(0 0)">
    <g id="그룹_330" data-name="그룹 330" transform="translate(0 0)" clip-path="url(#clip-path)">
      <path id="패스_574" data-name="패스 574" d="M20.254,9.62q0-4.62,0-9.24c0-.377,0-.379.382-.379h6.045c.369,0,.371,0,.371.365V18.871c0,.364,0,.366-.369.366H20.638c-.383,0-.384,0-.384-.377q0-4.62,0-9.239m3.923-4.891h-.01c0-.616,0-1.232,0-1.848a.485.485,0,0,0-.279-.5.527.527,0,0,0-.611.108c-.385.374-.77.749-1.138,1.139a.509.509,0,0,0,0,.718.532.532,0,0,0,.74.036c.059-.044.1-.154.19-.106s.067.156.067.242c0,.677-.005,1.355,0,2.033,0,.2-.064.3-.275.282a2.124,2.124,0,0,0-.4.007A.529.529,0,0,0,22,7.314a.535.535,0,0,0,.366.549,1.018,1.018,0,0,0,.338.048c.634,0,1.267,0,1.9,0a1.191,1.191,0,0,0,.312-.041.526.526,0,0,0,.393-.554.537.537,0,0,0-.492-.475c-.1-.01-.193,0-.29-.006-.341,0-.348-.01-.349-.362q0-.871,0-1.743" transform="translate(-10.652 0)" fill="#f74e7b"/>
      <path id="패스_575" data-name="패스 575" d="M3.57,18.706q0-3.206,0-6.414c0-.387,0-.388.375-.388h6.1c.354,0,.36.005.36.348q0,6.453.005,12.907c0,.273-.094.343-.352.342-2.05-.008-4.1,0-6.15,0-.32,0-.336-.017-.336-.351q0-3.22,0-6.44m3.416,1.075H8.094a.526.526,0,0,0,.367-.119.514.514,0,0,0,.15-.577.481.481,0,0,0-.5-.346c-.475,0-.95,0-1.425,0-.177,0-.286-.045-.275-.252a5.034,5.034,0,0,0,0-.633c-.016-.226.058-.315.3-.306.439.016.879.011,1.319,0a.551.551,0,0,0,.617-.621q.007-1.042,0-2.085a.556.556,0,0,0-.633-.632q-1.015-.011-2.032,0c-.4,0-.645.227-.637.551s.246.519.633.522c.457,0,.915.006,1.372,0,.18,0,.257.07.253.249-.005.22-.009.44,0,.66s-.087.29-.3.286c-.466-.01-.932-.009-1.4,0a.522.522,0,0,0-.563.563q-.011,1.1,0,2.191a.5.5,0,0,0,.542.548c.369.008.739,0,1.108,0" transform="translate(-1.878 -6.261)" fill="#f74e7b"/>
      <path id="패스_576" data-name="패스 576" d="M13,42.784H25.567c.432,0,.432,0,.432.439q0,.74,0,1.479c0,.416,0,.416-.43.417H.514c-.079,0-.159-.006-.238,0C.069,45.136,0,45.038,0,44.838c.007-.563,0-1.127,0-1.69,0-.356.008-.363.376-.363H13" transform="translate(0 -22.502)" fill="#f74e7b"/>
      <path id="패스_577" data-name="패스 577" d="M36.862,24.113q0-2.362,0-4.724c0-.354.005-.359.349-.359,2.05,0,4.1,0,6.149,0,.248,0,.339.072.339.329q-.01,4.79,0,9.58c0,.222-.067.313-.3.312q-3.114-.009-6.228,0c-.251,0-.311-.1-.31-.33.007-1.6,0-3.2,0-4.8m5.07.024c0-.722,0-1.443,0-2.164a.558.558,0,0,0-.607-.636c-.695-.01-1.389-.009-2.084,0-.388,0-.611.216-.611.545s.219.524.617.527c.449,0,.9.006,1.346,0,.187,0,.277.058.267.257a6.244,6.244,0,0,0,0,.659c.011.206-.069.282-.274.277-.466-.009-.932-.007-1.4,0a.51.51,0,0,0-.556.559c.015.311.239.5.618.512q.673.013,1.346,0c.188,0,.276.054.265.255a5.885,5.885,0,0,0,0,.659c.013.211-.079.279-.279.276-.448-.007-.9,0-1.346,0-.4,0-.61.187-.605.531s.209.51.6.512q1.042.006,2.084,0c.439,0,.619-.187.621-.632,0-.713,0-1.425,0-2.138" transform="translate(-19.385 -10.006)" fill="#f74e7b"/>
    </g>
  </g>
</svg>
