<?xml version="1.0" encoding="UTF-8"?>
<svg xmlns="http://www.w3.org/2000/svg" id="Layer_1" data-name="Layer 1" viewBox="0 0 24 24" width="512" height="512"><path d="M24,23.5c0,.276-.224,.5-.5,.5H2.5c-1.378,0-2.5-1.122-2.5-2.5V.5C0,.224,.224,0,.5,0s.5,.224,.5,.5V21.5c0,.827,.673,1.5,1.5,1.5H23.5c.276,0,.5,.224,.5,.5Zm-2.5-18.5h-4c-.276,0-.5,.224-.5,.5s.224,.5,.5,.5h4c.231,0,.45,.053,.646,.146l-5.771,5.414c-.584,.585-1.536,.586-2.153-.029l-.954-.799c-.943-.944-2.597-.939-3.53-.005l-5.586,5.414c-.198,.192-.203,.509-.011,.707,.098,.101,.229,.152,.359,.152,.125,0,.251-.047,.348-.141l5.591-5.419c.566-.566,1.523-.596,2.153,.029l.954,.799c.974,.975,2.561,.975,3.524,.011l5.771-5.414,.011-.011c.094,.196,.147,.415,.147,.647v4c0,.276,.224,.5,.5,.5s.5-.224,.5-.5V7.5c0-1.378-1.122-2.5-2.5-2.5Z"/></svg>
